<?xml version="1.0" standalone="no"?>
<!DOCTYPE svg PUBLIC "-//W3C//DTD SVG 20010904//EN"
 "http://www.w3.org/TR/2001/REC-SVG-20010904/DTD/svg10.dtd">
<svg version="1.0" xmlns="http://www.w3.org/2000/svg"
 width="757.000000pt" height="757.000000pt" viewBox="0 0 757.000000 757.000000"
 preserveAspectRatio="xMidYMid meet">
<metadata>
Created by potrace 1.14, written by Peter Selinger 2001-2017
</metadata>
<g transform="translate(0.000000,757.000000) scale(0.100000,-0.100000)"
fill="#000000" stroke="none">
<path d="M1 5708 c1 -1028 5 -1799 10 -1719 19 350 83 676 200 1022 28 85 55
159 59 164 4 6 17 37 29 70 42 115 207 430 283 542 15 23 28 44 28 47 0 4 16
29 35 56 19 28 52 74 72 103 181 259 475 563 758 784 175 136 427 293 645 400
456 224 954 355 1461 382 80 5 -690 9 -1718 10 l-1863 1 1 -1862z"/>
<path d="M3915 7563 c615 -21 1238 -202 1775 -514 41 -24 89 -54 107 -66 17
-13 34 -23 38 -23 13 0 159 -106 309 -225 519 -410 934 -976 1170 -1595 44
-117 128 -389 150 -490 10 -41 21 -93 26 -115 29 -122 58 -356 69 -556 5 -74
9 704 9 1729 l2 1862 -1867 -2 c-1028 -1 -1832 -3 -1788 -5z"/>
<path d="M2 1868 l-2 -1868 1863 1 c1032 1 1800 5 1722 10 -235 13 -486 49
-690 100 -101 25 -364 105 -430 131 -27 11 -59 24 -70 28 -124 49 -419 191
-504 242 -448 269 -807 584 -1091 958 -30 39 -60 77 -66 83 -21 24 -154 227
-154 236 0 5 -3 11 -8 13 -4 2 -26 35 -48 73 -304 521 -486 1124 -513 1705 -5
85 -9 -685 -9 -1712z"/>
<path d="M7560 3633 c0 -196 -40 -481 -105 -748 -32 -132 -100 -354 -129 -420
-7 -16 -19 -46 -26 -65 -41 -111 -180 -410 -205 -440 -7 -8 -29 -46 -50 -85
-21 -38 -46 -81 -55 -95 -9 -14 -41 -61 -70 -105 -73 -108 -190 -264 -268
-355 -125 -145 -359 -369 -517 -495 -27 -22 -54 -43 -60 -48 -57 -45 -200
-142 -345 -232 -145 -91 -521 -275 -562 -275 -8 0 -18 -4 -24 -8 -15 -13 -110
-48 -224 -82 -58 -17 -125 -38 -150 -45 -201 -61 -589 -119 -855 -128 -44 -2
760 -4 1788 -5 l1867 -2 0 1865 c0 1026 -2 1865 -5 1865 -3 0 -5 -44 -5 -97z"/>
<path d="M5902 3053 c-32 -6 -287 -257 -277 -273 6 -9 4 -11 -5 -5 -8 5 -29
-9 -60 -41 l-47 -48 101 -102 c55 -56 148 -149 205 -208 57 -58 109 -106 114
-106 15 0 355 340 373 372 32 60 25 70 -156 250 -178 176 -176 175 -248 161z"/>
<path d="M4045 835 c-60 -58 -65 -66 -53 -84 7 -12 17 -21 21 -21 17 0 127
121 127 139 0 40 -29 29 -95 -34z"/>
</g>
</svg>
